<svg xmlns="http://www.w3.org/2000/svg" viewBox="0 0 800 450" fill="none">
  <rect width="800" height="450" fill="#0a0a0a"/>
  <defs>
    <linearGradient id="bg" x1="0" y1="0" x2="800" y2="450" gradientUnits="userSpaceOnUse">
      <stop stop-color="#081014"/>
      <stop offset="1" stop-color="#0a0a0a"/>
    </linearGradient>
  </defs>
  <rect width="800" height="450" fill="url(#bg)"/>
  <rect x="260" y="70" width="280" height="320" rx="28" fill="#151518" stroke="#6366f1" stroke-opacity="0.35" stroke-width="2"/>
  <rect x="290" y="110" width="220" height="180" rx="10" fill="#111"/>
  <rect x="310" y="130" width="40" height="8" rx="4" fill="#6366f1" fill-opacity="0.5"/>
  <rect x="360" y="130" width="40" height="8" rx="4" fill="#ffffff" fill-opacity="0.15"/>
  <rect x="410" y="130" width="40" height="8" rx="4" fill="#ffffff" fill-opacity="0.15"/>
  <rect x="460" y="130" width="40" height="8" rx="4" fill="#ffffff" fill-opacity="0.15"/>
  <circle cx="330" cy="190" r="18" fill="#22c55e" fill-opacity="0.2" stroke="#22c55e" stroke-width="2"/>
  <path d="M322 190 L328 196 L340 182" stroke="#22c55e" stroke-width="2.5" stroke-linecap="round"/>
  <circle cx="400" cy="190" r="18" fill="#22c55e" fill-opacity="0.2" stroke="#22c55e" stroke-width="2"/>
  <path d="M392 190 L398 196 L410 182" stroke="#22c55e" stroke-width="2.5" stroke-linecap="round"/>
  <circle cx="470" cy="190" r="18" fill="#ffffff" fill-opacity="0.05" stroke="#ffffff" stroke-opacity="0.2" stroke-width="2"/>
  <rect x="310" y="230" width="180" height="10" rx="5" fill="#6366f1" fill-opacity="0.35"/>
  <rect x="310" y="255" width="140" height="10" rx="5" fill="#ffffff" fill-opacity="0.12"/>
  <text x="400" y="420" text-anchor="middle" fill="#818cf8" font-family="Arial,sans-serif" font-size="20" font-weight="700">Habit Tracker</text>
</svg>
