<svg xmlns="http://www.w3.org/2000/svg" viewBox="0 0 800 450" fill="none">
  <rect width="800" height="450" fill="#0a0a0a"/>
  <defs>
    <linearGradient id="bg" x1="0" y1="0" x2="800" y2="450" gradientUnits="userSpaceOnUse">
      <stop stop-color="#081210"/>
      <stop offset="1" stop-color="#0a0a0a"/>
    </linearGradient>
  </defs>
  <rect width="800" height="450" fill="url(#bg)"/>
  <rect x="180" y="100" width="440" height="250" rx="16" fill="#101818" stroke="#14b8a6" stroke-opacity="0.4" stroke-width="2"/>
  <rect x="210" y="130" width="380" height="50" rx="10" fill="#14b8a6" fill-opacity="0.12"/>
  <circle cx="240" cy="155" r="16" fill="#14b8a6" fill-opacity="0.5"/>
  <rect x="270" y="145" width="160" height="10" rx="5" fill="#ffffff" fill-opacity="0.35"/>
  <rect x="270" y="165" width="100" height="8" rx="4" fill="#ffffff" fill-opacity="0.15"/>
  <rect x="210" y="200" width="115" height="120" rx="10" fill="#14b8a6" fill-opacity="0.08"/>
  <rect x="345" y="200" width="115" height="120" rx="10" fill="#ffffff" fill-opacity="0.04"/>
  <rect x="480" y="200" width="110" height="120" rx="10" fill="#ffffff" fill-opacity="0.04"/>
  <path d="M400 60 L420 95 H380 Z" fill="#ef4444"/>
  <rect x="392" y="95" width="16" height="20" fill="#ef4444"/>
  <path d="M350 330 Q400 280 450 330" stroke="#14b8a6" stroke-width="3" fill="none"/>
  <text x="400" y="395" text-anchor="middle" fill="#2dd4bf" font-family="Arial,sans-serif" font-size="22" font-weight="700">Medi-care</text>
</svg>
