<svg xmlns="http://www.w3.org/2000/svg" viewBox="0 0 800 450" fill="none">
  <rect width="800" height="450" fill="#0a0a0a"/>
  <defs>
    <linearGradient id="bg" x1="0" y1="0" x2="800" y2="450" gradientUnits="userSpaceOnUse">
      <stop stop-color="#081018"/>
      <stop offset="1" stop-color="#0a0a0a"/>
    </linearGradient>
    <linearGradient id="card" x1="0" y1="0" x2="1" y2="1">
      <stop stop-color="#1e3a5f"/>
      <stop offset="1" stop-color="#0f2744"/>
    </linearGradient>
  </defs>
  <rect width="800" height="450" fill="url(#bg)"/>
  <rect x="180" y="110" width="440" height="230" rx="20" fill="url(#card)" stroke="#3b82f6" stroke-opacity="0.5" stroke-width="2"/>
  <rect x="210" y="145" width="60" height="42" rx="8" fill="#fbbf24" fill-opacity="0.8"/>
  <rect x="210" y="210" width="120" height="10" rx="5" fill="#ffffff" fill-opacity="0.3"/>
  <rect x="210" y="235" width="180" height="10" rx="5" fill="#ffffff" fill-opacity="0.15"/>
  <rect x="210" y="260" width="90" height="10" rx="5" fill="#ffffff" fill-opacity="0.15"/>
  <circle cx="540" cy="280" r="30" fill="#de6800" fill-opacity="0.9"/>
  <circle cx="570" cy="280" r="30" fill="#de6800" fill-opacity="0.55"/>
  <path d="M400 70 L430 110 L370 110 Z" fill="#3b82f6" fill-opacity="0.6"/>
  <rect x="385" y="110" width="30" height="40" fill="#3b82f6" fill-opacity="0.4"/>
  <rect x="560" y="95" width="110" height="34" rx="17" fill="#22c55e" fill-opacity="0.15" stroke="#22c55e" stroke-opacity="0.5"/>
  <text x="615" y="117" text-anchor="middle" fill="#22c55e" font-family="Arial,sans-serif" font-size="14" font-weight="700">QA</text>
  <text x="400" y="395" text-anchor="middle" fill="#60a5fa" font-family="Arial,sans-serif" font-size="22" font-weight="700">NexaTrust Bank</text>
</svg>
