<svg xmlns="http://www.w3.org/2000/svg" viewBox="0 0 800 450" fill="none">
  <rect width="800" height="450" fill="#0a0a0a"/>
  <defs>
    <linearGradient id="bg" x1="0" y1="0" x2="800" y2="450" gradientUnits="userSpaceOnUse">
      <stop stop-color="#0a140a"/>
      <stop offset="1" stop-color="#0a0a0a"/>
    </linearGradient>
    <linearGradient id="python" x1="0" y1="0" x2="1" y2="1">
      <stop stop-color="#3776ab"/>
      <stop offset="1" stop-color="#ffd343"/>
    </linearGradient>
  </defs>
  <rect width="800" height="450" fill="url(#bg)"/>
  <rect x="130" y="85" width="540" height="270" rx="16" fill="#111" stroke="#22c55e" stroke-opacity="0.35" stroke-width="2"/>
  <rect x="150" y="105" width="500" height="36" rx="8" fill="#22c55e" fill-opacity="0.12"/>
  <text x="170" y="129" fill="#22c55e" font-family="monospace" font-size="15" font-weight="700">pixelssuite QA Automation</text>
  <rect x="170" y="160" width="460" height="44" rx="8" fill="#ffffff" fill-opacity="0.04" stroke="#22c55e" stroke-opacity="0.15"/>
  <circle cx="195" cy="182" r="10" fill="#22c55e" fill-opacity="0.2" stroke="#22c55e" stroke-width="2"/>
  <path d="M190 182 L194 186 L202 176" stroke="#22c55e" stroke-width="2" stroke-linecap="round" stroke-linejoin="round"/>
  <text x="220" y="188" fill="#86efac" font-family="monospace" font-size="14">test_login.py PASSED</text>
  <rect x="170" y="215" width="460" height="44" rx="8" fill="#ffffff" fill-opacity="0.04" stroke="#22c55e" stroke-opacity="0.15"/>
  <circle cx="195" cy="237" r="10" fill="#22c55e" fill-opacity="0.2" stroke="#22c55e" stroke-width="2"/>
  <path d="M190 237 L194 241 L202 231" stroke="#22c55e" stroke-width="2" stroke-linecap="round" stroke-linejoin="round"/>
  <text x="220" y="243" fill="#86efac" font-family="monospace" font-size="14">test_checkout.py PASSED</text>
  <rect x="170" y="270" width="460" height="44" rx="8" fill="#ffffff" fill-opacity="0.04" stroke="#22c55e" stroke-opacity="0.15"/>
  <circle cx="195" cy="292" r="10" fill="#22c55e" fill-opacity="0.2" stroke="#22c55e" stroke-width="2"/>
  <path d="M190 292 L194 296 L202 286" stroke="#22c55e" stroke-width="2" stroke-linecap="round" stroke-linejoin="round"/>
  <text x="220" y="298" fill="#86efac" font-family="monospace" font-size="14">test_ui_flow.py PASSED</text>
  <circle cx="590" cy="182" r="34" fill="url(#python)" fill-opacity="0.25" stroke="#3776ab" stroke-width="2"/>
  <text x="590" y="190" text-anchor="middle" fill="#ffd343" font-family="Arial,sans-serif" font-size="22" font-weight="700">Py</text>
  <text x="400" y="395" text-anchor="middle" fill="#22c55e" font-family="Arial,sans-serif" font-size="18" font-weight="700">pixelssuite QA Automation</text>
</svg>
