<svg xmlns="http://www.w3.org/2000/svg" viewBox="0 0 800 450" fill="none">
  <rect width="800" height="450" fill="#0a0a0a"/>
  <defs>
    <linearGradient id="bg" x1="0" y1="0" x2="800" y2="450" gradientUnits="userSpaceOnUse">
      <stop stop-color="#140a08"/>
      <stop offset="1" stop-color="#0a0a0a"/>
    </linearGradient>
    <linearGradient id="report" x1="0" y1="0" x2="1" y2="1">
      <stop stop-color="#de6900"/>
      <stop offset="1" stop-color="#e87410"/>
    </linearGradient>
  </defs>
  <rect width="800" height="450" fill="url(#bg)"/>
  <rect x="100" y="70" width="600" height="310" rx="16" fill="#111" stroke="#de6900" stroke-opacity="0.35" stroke-width="2"/>
  <rect x="120" y="90" width="560" height="40" rx="8" fill="#de6900" fill-opacity="0.12"/>
  <text x="140" y="116" fill="#de6900" font-family="Arial,sans-serif" font-size="16" font-weight="700">Newman HTML Report</text>
  <rect x="520" y="98" width="140" height="24" rx="12" fill="#22c55e" fill-opacity="0.15" stroke="#22c55e" stroke-opacity="0.4"/>
  <text x="590" y="115" text-anchor="middle" fill="#22c55e" font-family="Arial,sans-serif" font-size="12" font-weight="700">ALL PASSED</text>
  <rect x="140" y="150" width="160" height="90" rx="10" fill="#22c55e" fill-opacity="0.08" stroke="#22c55e" stroke-opacity="0.2"/>
  <text x="220" y="185" text-anchor="middle" fill="#86efac" font-family="Arial,sans-serif" font-size="28" font-weight="700">6</text>
  <text x="220" y="210" text-anchor="middle" fill="#86efac" font-family="Arial,sans-serif" font-size="12">Requests</text>
  <rect x="320" y="150" width="160" height="90" rx="10" fill="#22c55e" fill-opacity="0.08" stroke="#22c55e" stroke-opacity="0.2"/>
  <text x="400" y="185" text-anchor="middle" fill="#22c55e" font-family="Arial,sans-serif" font-size="28" font-weight="700">6</text>
  <text x="400" y="210" text-anchor="middle" fill="#86efac" font-family="Arial,sans-serif" font-size="12">Passed</text>
  <rect x="500" y="150" width="160" height="90" rx="10" fill="#ffffff" fill-opacity="0.04" stroke="#ffffff" stroke-opacity="0.1"/>
  <text x="580" y="185" text-anchor="middle" fill="#ffffff" font-family="Arial,sans-serif" font-size="28" font-weight="700">0</text>
  <text x="580" y="210" text-anchor="middle" fill="#9ca3af" font-family="Arial,sans-serif" font-size="12">Failed</text>
  <rect x="140" y="260" width="520" height="90" rx="10" fill="#ffffff" fill-opacity="0.03" stroke="#de6900" stroke-opacity="0.15"/>
  <rect x="160" y="290" width="60" height="40" rx="4" fill="#22c55e" fill-opacity="0.7"/>
  <rect x="240" y="300" width="60" height="30" rx="4" fill="#22c55e" fill-opacity="0.55"/>
  <rect x="320" y="285" width="60" height="45" rx="4" fill="#22c55e" fill-opacity="0.65"/>
  <rect x="400" y="295" width="60" height="35" rx="4" fill="#22c55e" fill-opacity="0.5"/>
  <rect x="480" y="280" width="60" height="50" rx="4" fill="#22c55e" fill-opacity="0.75"/>
  <rect x="560" y="305" width="60" height="25" rx="4" fill="#22c55e" fill-opacity="0.45"/>
  <text x="400" y="278" text-anchor="middle" fill="#9ca3af" font-family="Arial,sans-serif" font-size="11">Response time (ms)</text>
  <circle cx="650" cy="280" r="28" fill="url(#report)" fill-opacity="0.25" stroke="#de6900" stroke-width="2"/>
  <text x="650" y="287" text-anchor="middle" fill="#de6900" font-family="Arial,sans-serif" font-size="11" font-weight="700">HTML</text>
  <text x="400" y="415" text-anchor="middle" fill="#de6900" font-family="Arial,sans-serif" font-size="18" font-weight="700">Newman Test Report</text>
</svg>
