<svg xmlns="http://www.w3.org/2000/svg" viewBox="0 0 800 450" fill="none">
  <rect width="800" height="450" fill="#0a0a0a"/>
  <defs>
    <linearGradient id="bg" x1="0" y1="0" x2="800" y2="450" gradientUnits="userSpaceOnUse">
      <stop stop-color="#101010"/>
      <stop offset="1" stop-color="#0a0a0a"/>
    </linearGradient>
  </defs>
  <rect width="800" height="450" fill="url(#bg)"/>
  <rect x="280" y="90" width="240" height="240" rx="12" fill="#fff" fill-opacity="0.95"/>
  <rect x="300" y="110" width="50" height="50" rx="4" fill="#111"/>
  <rect x="360" y="110" width="50" height="50" rx="4" fill="#111"/>
  <rect x="420" y="110" width="50" height="50" rx="4" fill="#111"/>
  <rect x="300" y="170" width="50" height="50" rx="4" fill="#111"/>
  <rect x="420" y="170" width="50" height="50" rx="4" fill="#111"/>
  <rect x="300" y="230" width="50" height="50" rx="4" fill="#111"/>
  <rect x="360" y="230" width="50" height="50" rx="4" fill="#111"/>
  <rect x="420" y="230" width="50" height="50" rx="4" fill="#111"/>
  <rect x="360" y="170" width="50" height="50" rx="4" fill="#de6800"/>
  <rect x="300" y="290" width="50" height="50" rx="4" fill="#111"/>
  <rect x="420" y="290" width="50" height="50" rx="4" fill="#111"/>
  <rect x="220" y="150" width="40" height="120" rx="8" fill="#de6800" fill-opacity="0.15" stroke="#de6800" stroke-opacity="0.4"/>
  <rect x="540" y="150" width="40" height="120" rx="8" fill="#de6800" fill-opacity="0.15" stroke="#de6800" stroke-opacity="0.4"/>
  <text x="400" y="380" text-anchor="middle" fill="#de6800" font-family="Arial,sans-serif" font-size="22" font-weight="700">QR Generator</text>
</svg>
