<svg xmlns="http://www.w3.org/2000/svg" viewBox="0 0 800 450" fill="none">
  <rect width="800" height="450" fill="#0a0a0a"/>
  <defs>
    <linearGradient id="bg" x1="0" y1="0" x2="800" y2="450" gradientUnits="userSpaceOnUse">
      <stop stop-color="#140818"/>
      <stop offset="1" stop-color="#0a0a0a"/>
    </linearGradient>
  </defs>
  <rect width="800" height="450" fill="url(#bg)"/>
  <rect x="200" y="90" width="400" height="220" rx="16" fill="#1a1020" stroke="#a855f7" stroke-opacity="0.45" stroke-width="2"/>
  <circle cx="400" cy="200" r="70" fill="none" stroke="#a855f7" stroke-width="3" stroke-dasharray="8 6"/>
  <rect x="340" y="130" width="120" height="14" rx="7" fill="#a855f7" fill-opacity="0.7"/>
  <rect x="310" y="160" width="180" height="8" rx="4" fill="#ffffff" fill-opacity="0.25"/>
  <rect x="330" y="180" width="140" height="8" rx="4" fill="#ffffff" fill-opacity="0.15"/>
  <rect x="370" y="240" width="60" height="40" rx="6" fill="#ff5f1f" fill-opacity="0.8"/>
  <path d="M200 200 H170 V170 H130 V200 H100 V230 H130 V260 H170 V230 H200" fill="#a855f7" fill-opacity="0.35"/>
  <path d="M600 200 H630 V170 H670 V200 H700 V230 H670 V260 H630 V230 H600" fill="#a855f7" fill-opacity="0.35"/>
  <text x="400" y="360" text-anchor="middle" fill="#c084fc" font-family="Arial,sans-serif" font-size="20" font-weight="700">Ticket Management</text>
</svg>
